<mxfile host="app.diagrams.net" modified="2020-07-30T10:06:03.696Z" agent="5.0 (X11; Linux x86_64) AppleWebKit/537.36 (KHTML, like Gecko) Chrome/84.0.4147.105 Safari/537.36" etag="IkX1gyqihHXhI16Lrfbc" version="13.5.5" type="github">
  <diagram id="AuHkqgrPFR4DmSlLNTNU" name="Page-1">
    <mxGraphModel dx="857" dy="461" grid="1" gridSize="10" guides="1" tooltips="1" connect="1" arrows="1" fold="1" page="1" pageScale="1" pageWidth="827" pageHeight="1169" math="0" shadow="0">
      <root>
        <mxCell id="0" />
        <mxCell id="1" parent="0" />
        <mxCell id="Gztcr_9qNAGbVb5-P4fe-1" value="Location" style="swimlane;fontStyle=1;align=center;verticalAlign=top;childLayout=stackLayout;horizontal=1;startSize=26;horizontalStack=0;resizeParent=1;resizeParentMax=0;resizeLast=0;collapsible=1;marginBottom=0;" parent="1" vertex="1">
          <mxGeometry x="80" y="120" width="160" height="86" as="geometry" />
        </mxCell>
        <mxCell id="Gztcr_9qNAGbVb5-P4fe-2" value="+ name: Castle&#xa;" style="text;strokeColor=none;fillColor=none;align=left;verticalAlign=top;spacingLeft=4;spacingRight=4;overflow=hidden;rotatable=0;points=[[0,0.5],[1,0.5]];portConstraint=eastwest;" parent="Gztcr_9qNAGbVb5-P4fe-1" vertex="1">
          <mxGeometry y="26" width="160" height="26" as="geometry" />
        </mxCell>
        <mxCell id="Gztcr_9qNAGbVb5-P4fe-3" value="" style="line;strokeWidth=1;fillColor=none;align=left;verticalAlign=middle;spacingTop=-1;spacingLeft=3;spacingRight=3;rotatable=0;labelPosition=right;points=[];portConstraint=eastwest;" parent="Gztcr_9qNAGbVb5-P4fe-1" vertex="1">
          <mxGeometry y="52" width="160" height="8" as="geometry" />
        </mxCell>
        <mxCell id="Gztcr_9qNAGbVb5-P4fe-4" value="(a Castle)&#xa;" style="text;strokeColor=none;fillColor=none;align=left;verticalAlign=top;spacingLeft=4;spacingRight=4;overflow=hidden;rotatable=0;points=[[0,0.5],[1,0.5]];portConstraint=eastwest;" parent="Gztcr_9qNAGbVb5-P4fe-1" vertex="1">
          <mxGeometry y="60" width="160" height="26" as="geometry" />
        </mxCell>
        <mxCell id="Gztcr_9qNAGbVb5-P4fe-5" value="Location" style="swimlane;fontStyle=1;align=center;verticalAlign=top;childLayout=stackLayout;horizontal=1;startSize=26;horizontalStack=0;resizeParent=1;resizeParentMax=0;resizeLast=0;collapsible=1;marginBottom=0;" parent="1" vertex="1">
          <mxGeometry x="300" y="120" width="160" height="112" as="geometry" />
        </mxCell>
        <mxCell id="Gztcr_9qNAGbVb5-P4fe-6" value="+ name: AB&#xa;" style="text;strokeColor=none;fillColor=none;align=left;verticalAlign=top;spacingLeft=4;spacingRight=4;overflow=hidden;rotatable=0;points=[[0,0.5],[1,0.5]];portConstraint=eastwest;" parent="Gztcr_9qNAGbVb5-P4fe-5" vertex="1">
          <mxGeometry y="26" width="160" height="26" as="geometry" />
        </mxCell>
        <mxCell id="Gztcr_9qNAGbVb5-P4fe-7" value="" style="line;strokeWidth=1;fillColor=none;align=left;verticalAlign=middle;spacingTop=-1;spacingLeft=3;spacingRight=3;rotatable=0;labelPosition=right;points=[];portConstraint=eastwest;" parent="Gztcr_9qNAGbVb5-P4fe-5" vertex="1">
          <mxGeometry y="52" width="160" height="8" as="geometry" />
        </mxCell>
        <mxCell id="Gztcr_9qNAGbVb5-P4fe-8" value="enemies&#xa;" style="text;strokeColor=none;fillColor=none;align=left;verticalAlign=top;spacingLeft=4;spacingRight=4;overflow=hidden;rotatable=0;points=[[0,0.5],[1,0.5]];portConstraint=eastwest;" parent="Gztcr_9qNAGbVb5-P4fe-5" vertex="1">
          <mxGeometry y="60" width="160" height="26" as="geometry" />
        </mxCell>
        <mxCell id="Gztcr_9qNAGbVb5-P4fe-14" value="(a Land)&#xa;" style="text;strokeColor=none;fillColor=none;align=left;verticalAlign=top;spacingLeft=4;spacingRight=4;overflow=hidden;rotatable=0;points=[[0,0.5],[1,0.5]];portConstraint=eastwest;" parent="Gztcr_9qNAGbVb5-P4fe-5" vertex="1">
          <mxGeometry y="86" width="160" height="26" as="geometry" />
        </mxCell>
        <mxCell id="Gztcr_9qNAGbVb5-P4fe-16" value="" style="endArrow=classic;html=1;exitX=1;exitY=0.25;exitDx=0;exitDy=0;entryX=-0.017;entryY=0.158;entryDx=0;entryDy=0;entryPerimeter=0;" parent="1" source="Gztcr_9qNAGbVb5-P4fe-1" target="Gztcr_9qNAGbVb5-P4fe-5" edge="1">
          <mxGeometry width="50" height="50" relative="1" as="geometry">
            <mxPoint x="390" y="370" as="sourcePoint" />
            <mxPoint x="440" y="320" as="targetPoint" />
          </mxGeometry>
        </mxCell>
        <mxCell id="Gztcr_9qNAGbVb5-P4fe-9" value="Location" style="swimlane;fontStyle=1;align=center;verticalAlign=top;childLayout=stackLayout;horizontal=1;startSize=26;horizontalStack=0;resizeParent=1;resizeParentMax=0;resizeLast=0;collapsible=1;marginBottom=0;" parent="1" vertex="1">
          <mxGeometry x="530" y="120" width="160" height="138" as="geometry" />
        </mxCell>
        <mxCell id="Gztcr_9qNAGbVb5-P4fe-10" value="+ name: WarriorHeights&#xa;" style="text;strokeColor=none;fillColor=none;align=left;verticalAlign=top;spacingLeft=4;spacingRight=4;overflow=hidden;rotatable=0;points=[[0,0.5],[1,0.5]];portConstraint=eastwest;" parent="Gztcr_9qNAGbVb5-P4fe-9" vertex="1">
          <mxGeometry y="26" width="160" height="26" as="geometry" />
        </mxCell>
        <mxCell id="Gztcr_9qNAGbVb5-P4fe-11" value="" style="line;strokeWidth=1;fillColor=none;align=left;verticalAlign=middle;spacingTop=-1;spacingLeft=3;spacingRight=3;rotatable=0;labelPosition=right;points=[];portConstraint=eastwest;" parent="Gztcr_9qNAGbVb5-P4fe-9" vertex="1">
          <mxGeometry y="52" width="160" height="8" as="geometry" />
        </mxCell>
        <mxCell id="Gztcr_9qNAGbVb5-P4fe-12" value="enemies:Â " style="text;strokeColor=none;fillColor=none;align=left;verticalAlign=top;spacingLeft=4;spacingRight=4;overflow=hidden;rotatable=0;points=[[0,0.5],[1,0.5]];portConstraint=eastwest;" parent="Gztcr_9qNAGbVb5-P4fe-9" vertex="1">
          <mxGeometry y="60" width="160" height="26" as="geometry" />
        </mxCell>
        <mxCell id="Gztcr_9qNAGbVb5-P4fe-15" value="power: 2" style="text;strokeColor=none;fillColor=none;align=left;verticalAlign=top;spacingLeft=4;spacingRight=4;overflow=hidden;rotatable=0;points=[[0,0.5],[1,0.5]];portConstraint=eastwest;" parent="Gztcr_9qNAGbVb5-P4fe-9" vertex="1">
          <mxGeometry y="86" width="160" height="26" as="geometry" />
        </mxCell>
        <mxCell id="Gztcr_9qNAGbVb5-P4fe-13" value="(a Tower)" style="text;strokeColor=none;fillColor=none;align=left;verticalAlign=top;spacingLeft=4;spacingRight=4;overflow=hidden;rotatable=0;points=[[0,0.5],[1,0.5]];portConstraint=eastwest;" parent="Gztcr_9qNAGbVb5-P4fe-9" vertex="1">
          <mxGeometry y="112" width="160" height="26" as="geometry" />
        </mxCell>
        <mxCell id="Gztcr_9qNAGbVb5-P4fe-17" value="" style="endArrow=classic;html=1;entryX=0.001;entryY=0.148;entryDx=0;entryDy=0;entryPerimeter=0;exitX=1.008;exitY=0.175;exitDx=0;exitDy=0;exitPerimeter=0;" parent="1" source="Gztcr_9qNAGbVb5-P4fe-5" target="Gztcr_9qNAGbVb5-P4fe-9" edge="1">
          <mxGeometry width="50" height="50" relative="1" as="geometry">
            <mxPoint x="390" y="370" as="sourcePoint" />
            <mxPoint x="440" y="320" as="targetPoint" />
          </mxGeometry>
        </mxCell>
        <mxCell id="Gztcr_9qNAGbVb5-P4fe-18" value="" style="endArrow=classic;html=1;entryX=0.5;entryY=0;entryDx=0;entryDy=0;" parent="1" source="Gztcr_9qNAGbVb5-P4fe-8" edge="1" target="Gztcr_9qNAGbVb5-P4fe-19">
          <mxGeometry width="50" height="50" relative="1" as="geometry">
            <mxPoint x="390" y="370" as="sourcePoint" />
            <mxPoint x="376" y="340" as="targetPoint" />
          </mxGeometry>
        </mxCell>
        <mxCell id="Gztcr_9qNAGbVb5-P4fe-19" value="Enemy&lt;br&gt;name: abacd" style="html=1;" parent="1" vertex="1">
          <mxGeometry x="325" y="320" width="110" height="50" as="geometry" />
        </mxCell>
        <mxCell id="Gztcr_9qNAGbVb5-P4fe-25" value="" style="edgeStyle=orthogonalEdgeStyle;rounded=0;orthogonalLoop=1;jettySize=auto;html=1;" parent="1" source="Gztcr_9qNAGbVb5-P4fe-20" target="Gztcr_9qNAGbVb5-P4fe-21" edge="1">
          <mxGeometry relative="1" as="geometry" />
        </mxCell>
        <mxCell id="Gztcr_9qNAGbVb5-P4fe-20" value="Enemy&lt;br&gt;name: dasfdasf" style="html=1;" parent="1" vertex="1">
          <mxGeometry x="325" y="420" width="110" height="50" as="geometry" />
        </mxCell>
        <mxCell id="Gztcr_9qNAGbVb5-P4fe-21" value="Enemy&lt;br&gt;name: dfadf" style="html=1;" parent="1" vertex="1">
          <mxGeometry x="320" y="500" width="110" height="50" as="geometry" />
        </mxCell>
        <mxCell id="Gztcr_9qNAGbVb5-P4fe-22" value="" style="endArrow=classic;html=1;exitX=0.5;exitY=1;exitDx=0;exitDy=0;entryX=0.5;entryY=0;entryDx=0;entryDy=0;" parent="1" source="Gztcr_9qNAGbVb5-P4fe-19" target="Gztcr_9qNAGbVb5-P4fe-20" edge="1">
          <mxGeometry width="50" height="50" relative="1" as="geometry">
            <mxPoint x="390" y="360" as="sourcePoint" />
            <mxPoint x="440" y="310" as="targetPoint" />
          </mxGeometry>
        </mxCell>
        <mxCell id="Gztcr_9qNAGbVb5-P4fe-24" value="" style="endArrow=classic;html=1;entryX=0.5;entryY=0;entryDx=0;entryDy=0;exitX=0.5;exitY=1;exitDx=0;exitDy=0;" parent="1" source="Gztcr_9qNAGbVb5-P4fe-20" target="Gztcr_9qNAGbVb5-P4fe-21" edge="1">
          <mxGeometry width="50" height="50" relative="1" as="geometry">
            <mxPoint x="390" y="360" as="sourcePoint" />
            <mxPoint x="440" y="310" as="targetPoint" />
          </mxGeometry>
        </mxCell>
        <mxCell id="Gztcr_9qNAGbVb5-P4fe-26" value="Enemy&lt;br&gt;name: bdfds" style="html=1;" parent="1" vertex="1">
          <mxGeometry x="565" y="330" width="110" height="50" as="geometry" />
        </mxCell>
        <mxCell id="Gztcr_9qNAGbVb5-P4fe-27" value="" style="edgeStyle=orthogonalEdgeStyle;rounded=0;orthogonalLoop=1;jettySize=auto;html=1;" parent="1" source="Gztcr_9qNAGbVb5-P4fe-28" target="Gztcr_9qNAGbVb5-P4fe-29" edge="1">
          <mxGeometry relative="1" as="geometry" />
        </mxCell>
        <mxCell id="Gztcr_9qNAGbVb5-P4fe-28" value="Enemy&lt;br&gt;name: dfsfsdf" style="html=1;" parent="1" vertex="1">
          <mxGeometry x="565" y="410" width="110" height="50" as="geometry" />
        </mxCell>
        <mxCell id="Gztcr_9qNAGbVb5-P4fe-29" value="Enemy&lt;br&gt;name: zcczcz" style="html=1;" parent="1" vertex="1">
          <mxGeometry x="560" y="490" width="110" height="50" as="geometry" />
        </mxCell>
        <mxCell id="Gztcr_9qNAGbVb5-P4fe-30" value="" style="endArrow=classic;html=1;exitX=0.5;exitY=1;exitDx=0;exitDy=0;entryX=0.5;entryY=0;entryDx=0;entryDy=0;" parent="1" source="Gztcr_9qNAGbVb5-P4fe-26" target="Gztcr_9qNAGbVb5-P4fe-28" edge="1">
          <mxGeometry width="50" height="50" relative="1" as="geometry">
            <mxPoint x="630" y="350" as="sourcePoint" />
            <mxPoint x="680" y="300" as="targetPoint" />
          </mxGeometry>
        </mxCell>
        <mxCell id="Gztcr_9qNAGbVb5-P4fe-31" value="" style="endArrow=classic;html=1;entryX=0.5;entryY=0;entryDx=0;entryDy=0;exitX=0.5;exitY=1;exitDx=0;exitDy=0;" parent="1" source="Gztcr_9qNAGbVb5-P4fe-28" target="Gztcr_9qNAGbVb5-P4fe-29" edge="1">
          <mxGeometry width="50" height="50" relative="1" as="geometry">
            <mxPoint x="630" y="350" as="sourcePoint" />
            <mxPoint x="680" y="300" as="targetPoint" />
          </mxGeometry>
        </mxCell>
        <mxCell id="Gztcr_9qNAGbVb5-P4fe-32" value="" style="endArrow=classic;html=1;entryX=0.5;entryY=0;entryDx=0;entryDy=0;" parent="1" source="Gztcr_9qNAGbVb5-P4fe-12" target="Gztcr_9qNAGbVb5-P4fe-26" edge="1">
          <mxGeometry width="50" height="50" relative="1" as="geometry">
            <mxPoint x="390" y="360" as="sourcePoint" />
            <mxPoint x="440" y="310" as="targetPoint" />
          </mxGeometry>
        </mxCell>
      </root>
    </mxGraphModel>
  </diagram>
</mxfile>
